<svg width="21" height="14" viewBox="0 0 21 14" fill="none" xmlns="http://www.w3.org/2000/svg">
<path fill-rule="evenodd" clip-rule="evenodd" d="M20.115 2.03295C20.115 1.3999 19.6375 0.886719 19.0484 0.886719H17.9817C17.3926 0.886719 16.915 1.3999 16.915 2.03295V11.9669C16.915 12.5999 17.3926 13.1131 17.9817 13.1131H19.0484C19.6375 13.1131 20.115 12.5999 20.115 11.9669V2.03295ZM12.6809 3.332H13.7476C14.3367 3.332 14.8143 3.8575 14.8143 4.50574V11.9394C14.8143 12.5876 14.3367 13.1131 13.7476 13.1131H12.6809C12.0918 13.1131 11.6143 12.5876 11.6143 11.9394V4.50574C11.6143 3.8575 12.0918 3.332 12.6809 3.332ZM8.34915 5.98105H7.28249C6.69338 5.98105 6.21582 6.51324 6.21582 7.16973V11.9244C6.21582 12.5809 6.69338 13.1131 7.28249 13.1131H8.34915C8.93826 13.1131 9.41582 12.5809 9.41582 11.9244V7.16973C9.41582 6.51324 8.93826 5.98105 8.34915 5.98105ZM3.04837 8.42634H1.98171C1.3926 8.42634 0.915039 8.95093 0.915039 9.59804V11.9414C0.915039 12.5885 1.3926 13.1131 1.98171 13.1131H3.04837C3.63748 13.1131 4.11504 12.5885 4.11504 11.9414V9.59804C4.11504 8.95093 3.63748 8.42634 3.04837 8.42634Z" fill="white"/>
</svg>
