<svg width="20" height="14" viewBox="0 0 20 14" fill="none" xmlns="http://www.w3.org/2000/svg">
<path fill-rule="evenodd" clip-rule="evenodd" d="M19.8652 2.03301C19.8652 1.39996 19.3876 0.88678 18.7985 0.88678H17.7318C17.1427 0.88678 16.6652 1.39996 16.6652 2.03301V11.967C16.6652 12.6 17.1427 13.1132 17.7318 13.1132H18.7985C19.3876 13.1132 19.8652 12.6 19.8652 11.967V2.03301ZM12.431 3.33206H13.4977C14.0868 3.33206 14.5644 3.85756 14.5644 4.5058V11.9395C14.5644 12.5877 14.0868 13.1132 13.4977 13.1132H12.431C11.8419 13.1132 11.3644 12.5877 11.3644 11.9395V4.5058C11.3644 3.85756 11.8419 3.33206 12.431 3.33206ZM8.09928 5.98111H7.03261C6.44351 5.98111 5.96594 6.5133 5.96594 7.16979V11.9245C5.96594 12.581 6.44351 13.1132 7.03261 13.1132H8.09928C8.68838 13.1132 9.16594 12.581 9.16594 11.9245V7.16979C9.16594 6.5133 8.68838 5.98111 8.09928 5.98111ZM2.79849 8.4264H1.73183C1.14272 8.4264 0.665161 8.95099 0.665161 9.5981V11.9415C0.665161 12.5886 1.14272 13.1132 1.73183 13.1132H2.79849C3.3876 13.1132 3.86516 12.5886 3.86516 11.9415V9.5981C3.86516 8.95099 3.3876 8.4264 2.79849 8.4264Z" fill="black"/>
</svg>
