<svg width="28" height="28" viewBox="0 0 28 28" fill="none" xmlns="http://www.w3.org/2000/svg">
<path d="M10.5 25.6667V17.5C10.5 15.567 12.067 14 14 14C15.933 14 17.5 15.567 17.5 17.5V25.6667" fill="white"/>
<path d="M10.5 25.6667V17.5C10.5 15.567 12.067 14 14 14V14C15.933 14 17.5 15.567 17.5 17.5V25.6667" stroke="black" stroke-width="1.75" stroke-linecap="round" stroke-linejoin="round"/>
<path d="M3.5 12.2115C3.5 11.1314 3.99865 10.1118 4.85121 9.44873L11.8512 4.00429C13.1151 3.02127 14.8849 3.02127 16.1488 4.00429L23.1488 9.44873C24.0013 10.1118 24.5 11.1314 24.5 12.2115V23.333C24.5 23.9518 24.2542 24.5453 23.8166 24.9829C23.379 25.4205 22.7855 25.6663 22.1667 25.6663H5.83333C5.21449 25.6663 4.621 25.4205 4.18342 24.9829C3.74583 24.5453 3.5 23.9518 3.5 23.333V12.2115Z" stroke="black" stroke-width="1.75" stroke-linecap="round" stroke-linejoin="round"/>
</svg>
