<svg width="18" height="19" viewBox="0 0 18 19" fill="none" xmlns="http://www.w3.org/2000/svg">
<path d="M15.5 7.75C15.5 13 8.75 17.5 8.75 17.5C8.75 17.5 2 13 2 7.75C2 5.95979 2.71116 4.2429 3.97703 2.97703C5.2429 1.71116 6.95979 1 8.75 1C10.5402 1 12.2571 1.71116 13.523 2.97703C14.7888 4.2429 15.5 5.95979 15.5 7.75Z" stroke="#121212" stroke-width="1.5" stroke-linecap="round" stroke-linejoin="round"/>
<path d="M9 9.75C10.2426 9.75 11.25 8.74264 11.25 7.5C11.25 6.25736 10.2426 5.25 9 5.25C7.75736 5.25 6.75 6.25736 6.75 7.5C6.75 8.74264 7.75736 9.75 9 9.75Z" stroke="#121212" stroke-width="1.5" stroke-linecap="round" stroke-linejoin="round"/>
</svg>
