<svg width="28" height="28" viewBox="0 0 28 28" fill="none" xmlns="http://www.w3.org/2000/svg">
  <path d="M1.75 7V4.66667C1.75 3.95942 2.03069 3.28115 2.53079 2.78105C3.03089 2.28095 3.70916 2 4.41667 2H7.58333" stroke="#FFFFFF" stroke-width="2.5" stroke-linecap="round" stroke-linejoin="round"/>
  <path d="M1.75 21V23.3333C1.75 24.0406 2.03069 24.7189 2.53079 25.219C3.03089 25.719 3.70916 26 4.41667 26H7.58333" stroke="#FFFFFF" stroke-width="2.5" stroke-linecap="round" stroke-linejoin="round"/>
  <path d="M20.4166 2H23.5833C24.2908 2 24.9691 2.28095 25.4692 2.78105C25.9693 3.28115 26.25 3.95942 26.25 4.66667V7" stroke="#FFFFFF" stroke-width="2.5" stroke-linecap="round" stroke-linejoin="round"/>
  <path d="M20.4166 26H23.5833C24.2908 26 24.9691 25.719 25.4692 25.219C25.9693 24.7189 26.25 24.0406 26.25 23.3333V21" stroke="#FFFFFF" stroke-width="2.5" stroke-linecap="round" stroke-linejoin="round"/>
  <path d="M2.91675 14H25.0834" stroke="#FFFFFF" stroke-width="2.5" stroke-linecap="round" stroke-linejoin="round"/>
</svg> 