<svg width="22" height="26" viewBox="0 0 22 26" fill="none" xmlns="http://www.w3.org/2000/svg">
<path d="M10.999 0.799805C12.3371 0.799806 13.6622 1.06415 14.8984 1.57617C16.1347 2.08826 17.2589 2.83894 18.2051 3.78516C19.1511 4.73129 19.9021 5.85471 20.4141 7.09082C20.926 8.32699 21.1895 9.65223 21.1895 10.9902H16.7432C16.7432 10.2359 16.5943 9.48887 16.3057 8.79199C16.017 8.09514 15.5939 7.46206 15.0605 6.92871C14.5272 6.39538 13.8941 5.97224 13.1973 5.68359C12.5004 5.39497 11.7533 5.24609 10.999 5.24609C10.245 5.24614 9.49843 5.39507 8.80176 5.68359C8.10488 5.97225 7.47086 6.39535 6.9375 6.92871C6.40428 7.46201 5.98098 8.09525 5.69238 8.79199C5.40388 9.48858 5.25596 10.2353 5.25586 10.9893H5.26758V25.2129H0.80957V10.9893C0.809667 9.65148 1.07306 8.32679 1.58496 7.09082C2.09705 5.85453 2.84773 4.7304 3.79395 3.78418C4.74003 2.83815 5.86355 2.08822 7.09961 1.57617C8.33579 1.06413 9.661 0.799853 10.999 0.799805Z" fill="black"/>
</svg>
