<svg width="18" height="14" viewBox="0 0 18 14" fill="none" xmlns="http://www.w3.org/2000/svg">
<path fill-rule="evenodd" clip-rule="evenodd" d="M9.43645 3.30213C11.9236 3.30223 14.3156 4.22432 16.1181 5.8778C16.2538 6.00545 16.4708 6.00384 16.6044 5.87419L17.9019 4.61072C17.9696 4.54496 18.0074 4.45588 18.0068 4.3632C18.0062 4.27052 17.9674 4.18187 17.8989 4.11688C13.1679 -0.257833 5.70421 -0.257833 0.973199 4.11688C0.904667 4.18183 0.865783 4.27044 0.865151 4.36313C0.864519 4.45581 0.902191 4.54491 0.969832 4.61072L2.2677 5.87419C2.40129 6.00404 2.61842 6.00565 2.75407 5.8778C4.55681 4.22421 6.94909 3.30212 9.43645 3.30213ZM9.43309 7.5224C10.7904 7.52232 12.0993 8.03406 13.1054 8.95819C13.2415 9.08934 13.4559 9.0865 13.5885 8.95178L14.8758 7.63247C14.9436 7.56327 14.9812 7.46939 14.9802 7.37184C14.9792 7.27429 14.9398 7.18121 14.8706 7.11342C11.8068 4.22257 7.06202 4.22257 3.99819 7.11342C3.92898 7.18121 3.8895 7.27434 3.88859 7.37192C3.88768 7.4695 3.92543 7.56337 3.99336 7.63247L5.28027 8.95178C5.41292 9.0865 5.62729 9.08934 5.76337 8.95819C6.76882 8.03467 8.07667 7.52297 9.43309 7.5224ZM11.9575 10.316C11.9594 10.4213 11.9224 10.5229 11.8551 10.5967L9.67841 13.0514C9.61461 13.1236 9.52761 13.1642 9.43684 13.1642C9.34608 13.1642 9.25908 13.1236 9.19528 13.0514L7.01825 10.5967C6.951 10.5228 6.914 10.4212 6.91599 10.3159C6.91799 10.2105 6.9588 10.1108 7.02878 10.0401C8.41888 8.72625 10.4548 8.72625 11.8449 10.0401C11.9148 10.1108 11.9556 10.2106 11.9575 10.316Z" fill="black"/>
</svg>
