<svg width="18" height="14" viewBox="0 0 18 14" fill="none" xmlns="http://www.w3.org/2000/svg">
<path fill-rule="evenodd" clip-rule="evenodd" d="M8.68654 3.30222C11.1736 3.30232 13.5657 4.22441 15.3682 5.87789C15.5039 6.00554 15.7209 6.00393 15.8545 5.87428L17.152 4.61081C17.2197 4.54505 17.2575 4.45597 17.2569 4.36329C17.2563 4.27061 17.2175 4.18197 17.149 4.11697C12.418 -0.257741 4.9543 -0.257741 0.22329 4.11697C0.154758 4.18192 0.115874 4.27054 0.115242 4.36322C0.11461 4.4559 0.152283 4.545 0.219923 4.61081L1.51779 5.87428C1.65139 6.00413 1.86851 6.00574 2.00416 5.87789C3.8069 4.2243 6.19918 3.30221 8.68654 3.30222ZM8.68318 7.5225C10.0405 7.52241 11.3494 8.03415 12.3555 8.95828C12.4916 9.08943 12.7059 9.08659 12.8386 8.95187L14.1259 7.63256C14.1937 7.56336 14.2313 7.46948 14.2303 7.37193C14.2293 7.27438 14.1898 7.1813 14.1207 7.11351C11.0568 4.22266 6.31211 4.22266 3.24828 7.11351C3.17907 7.1813 3.13959 7.27443 3.13868 7.37201C3.13777 7.46959 3.17552 7.56346 3.24345 7.63256L4.53036 8.95187C4.66302 9.08659 4.87738 9.08943 5.01346 8.95828C6.01892 8.03476 7.32676 7.52307 8.68318 7.5225ZM11.2076 10.316C11.2095 10.4214 11.1725 10.523 11.1052 10.5968L8.9285 13.0515C8.8647 13.1236 8.77771 13.1642 8.68694 13.1642C8.59617 13.1642 8.50917 13.1236 8.44537 13.0515L6.26834 10.5968C6.20109 10.5229 6.16409 10.4213 6.16608 10.316C6.16808 10.2106 6.20889 10.1108 6.27887 10.0402C7.66897 8.72634 9.7049 8.72634 11.095 10.0402C11.1649 10.1109 11.2057 10.2107 11.2076 10.316Z" fill="black"/>
</svg>
